<svg width="28" height="32" viewBox="0 0 28 32" fill="none" xmlns="http://www.w3.org/2000/svg">
<path fill-rule="evenodd" clip-rule="evenodd" d="M21 22.4H7V12.8C7 8.5344 10.5 6.4 13.9982 6.4H14.0018C17.5 6.4 21 8.5344 21 12.8V22.4ZM15.75 27.2C15.75 28.0832 14.966 28.8 14 28.8C13.034 28.8 12.25 28.0832 12.25 27.2V25.6H15.75V27.2ZM26.25 22.4C25.284 22.4 24.5 21.6832 24.5 20.8V12.8C24.5 7.1152 20.356 3.95997 15.75 3.32637V1.6C15.75 0.7168 14.966 0 14 0C13.034 0 12.25 0.7168 12.25 1.6V3.32637C7.644 3.95997 3.5 7.1152 3.5 12.8V20.8C3.5 21.6832 2.716 22.4 1.75 22.4C0.784 22.4 0 23.1168 0 24C0 24.8832 0.784 25.6 1.75 25.6H8.75V27.2C8.75 29.8512 11.1003 32 14 32C16.8998 32 19.25 29.8512 19.25 27.2V25.6H26.25C27.216 25.6 28 24.8832 28 24C28 23.1168 27.216 22.4 26.25 22.4Z" fill="white"/>
</svg>
