<svg width="32" height="10" viewBox="0 0 32 10" fill="none" xmlns="http://www.w3.org/2000/svg">
<path fill-rule="evenodd" clip-rule="evenodd" d="M28.8 4.57139C28.8 5.41101 28.0816 6.09521 27.2 6.09521C26.3184 6.09521 25.6 5.41101 25.6 4.57139C25.6 3.73177 26.3184 3.04758 27.2 3.04758C28.0816 3.04758 28.8 3.73177 28.8 4.57139ZM22.4 4.57139C22.4 7.09635 24.5488 9.14282 27.2 9.14282C29.8512 9.14282 32 7.09635 32 4.57139C32 2.04644 29.8512 -3.55244e-05 27.2 -3.55244e-05C24.5488 -3.55244e-05 22.4 2.04644 22.4 4.57139ZM17.6 4.57139C17.6 5.41101 16.8816 6.09521 16 6.09521C15.1184 6.09521 14.4 5.41101 14.4 4.57139C14.4 3.73177 15.1184 3.04758 16 3.04758C16.8816 3.04758 17.6 3.73177 17.6 4.57139ZM11.2 4.57139C11.2 7.09635 13.3488 9.14282 16 9.14282C18.6512 9.14282 20.8 7.09635 20.8 4.57139C20.8 2.04644 18.6512 -3.55244e-05 16 -3.55244e-05C13.3488 -3.55244e-05 11.2 2.04644 11.2 4.57139ZM3.2 4.57139C3.2 3.73177 3.9184 3.04758 4.8 3.04758C5.6816 3.04758 6.4 3.73177 6.4 4.57139C6.4 5.41101 5.6816 6.09521 4.8 6.09521C3.9184 6.09521 3.2 5.41101 3.2 4.57139ZM9.6 4.57139C9.6 2.04644 7.4512 -3.55244e-05 4.8 -3.55244e-05C2.1488 -3.55244e-05 0 2.04644 0 4.57139C0 7.09635 2.1488 9.14282 4.8 9.14282C7.4512 9.14282 9.6 7.09635 9.6 4.57139Z" fill="white"/>
</svg>
