<svg width="32" height="32" viewBox="0 0 32 32" fill="none" xmlns="http://www.w3.org/2000/svg">
<g clip-path="url(#clip0)">
<path d="M4.00001 28V0H0V30C0 31.1045 0.8955 32 2 32H32V28H4.00001H4.00001Z" fill="white"/>
<path d="M8.99999 24H11C11.5528 24 12 23.5527 12 23V13C12 12.4472 11.5527 12 11 12H8.99999C8.44722 12 8 12.4473 8 13V23C8 23.5527 8.44726 24 8.99999 24Z" fill="white"/>
<path d="M15 24.0001H17C17.5528 24.0001 18 23.5528 18 23.0001V5.0001C18 4.44735 17.5527 4.00012 17 4.00012H15C14.4472 4.00012 14 4.44738 14 5.0001V23.0001C14 23.5529 14.4473 24.0001 15 24.0001Z" fill="white"/>
<path d="M21 24.0001H23C23.5528 24.0001 24 23.5528 24 23.0001V17.0001C24 16.4473 23.5527 16.0001 23 16.0001H21C20.4472 16.0001 20 16.4474 20 17.0001V23.0001C20 23.5529 20.4473 24.0001 21 24.0001H21Z" fill="white"/>
<path d="M27 24H29C29.5528 24 30 23.5527 30 23V8.99998C30 8.44722 29.5527 8 29 8H27C26.4472 8 26 8.44726 26 8.99998V23C26 23.5527 26.4473 24 27 24Z" fill="white"/>
</g>
<defs>
<clipPath id="clip0">
<rect width="32" height="32" fill="white"/>
</clipPath>
</defs>
</svg>
