<svg width="48" height="56" viewBox="0 0 48 56" fill="none" xmlns="http://www.w3.org/2000/svg">
<path fill-rule="evenodd" clip-rule="evenodd" d="M35.7 39.2H11.9V22.4C11.9 14.9352 17.85 11.2 23.797 11.2H23.803C29.75 11.2 35.7 14.9352 35.7 22.4V39.2ZM26.775 47.6C26.775 49.1456 25.4422 50.4 23.8 50.4C22.1578 50.4 20.825 49.1456 20.825 47.6V44.8H26.775V47.6ZM41.65 39.2V22.4C41.65 12.4516 34.6052 6.92994 26.775 5.82114V0H20.825V5.82114C12.9948 6.92994 5.95 12.4516 5.95 22.4V39.2H0V44.8H14.875V47.6C14.875 52.2396 18.8704 56 23.8 56C28.7296 56 32.725 52.2396 32.725 47.6V44.8H47.6V39.2H41.65Z" fill="#E30404"/>
</svg>
