<svg width="28" height="28" viewBox="0 0 28 28" fill="none" xmlns="http://www.w3.org/2000/svg">
<g clip-path="url(#clip0)">
<path d="M14 0C6.26793 0 0 6.26793 0 14C0 21.7321 6.26793 28 14 28C21.7321 28 28 21.7321 28 14C28 6.26793 21.7321 3.56038e-07 14 3.56038e-07V0ZM17.3163 9.67459H15.2119C14.9625 9.67459 14.6854 10.0027 14.6854 10.4388V11.9583H17.3177L16.9196 14.1254H14.6854V20.631H12.2019V14.1254H9.94874V11.9583H12.2019V10.6837C12.2019 8.85499 13.4706 7.36894 15.2119 7.36894H17.3163V9.67456V9.67459Z" fill="white"/>
</g>
<defs>
<clipPath id="clip0">
<rect width="28" height="28" fill="white"/>
</clipPath>
</defs>
</svg>
