<svg width="28" height="28" viewBox="0 0 28 28" fill="none" xmlns="http://www.w3.org/2000/svg">
<g clip-path="url(#clip0)">
<path d="M18.375 14C18.375 16.4164 16.4164 18.375 14 18.375C11.5836 18.375 9.625 16.4164 9.625 14C9.625 13.7506 9.65126 13.5071 9.69646 13.2708H8.16667V19.0998C8.16667 19.5052 8.49479 19.8333 8.90022 19.8333H19.1013C19.5052 19.8333 19.8333 19.5052 19.8333 19.0998V13.2708H18.3035C18.3487 13.5071 18.375 13.7506 18.375 14ZM14 16.9167C15.61 16.9167 16.9167 15.61 16.9167 14C16.9167 12.39 15.61 11.0833 14 11.0833C12.39 11.0833 11.0833 12.39 11.0833 14C11.0833 15.61 12.39 16.9167 14 16.9167ZM17.5 10.9375H19.2485C19.4906 10.9375 19.6875 10.7406 19.6875 10.5V8.75145C19.6875 8.50938 19.4906 8.3125 19.2485 8.3125H17.5C17.2579 8.3125 17.061 8.50938 17.061 8.75145V10.5C17.0625 10.7406 17.2594 10.9375 17.5 10.9375ZM14 0C6.26793 0 0 6.26793 0 14C0 21.7321 6.26793 28 14 28C21.7321 28 28 21.7321 28 14C28 6.26793 21.7321 3.56038e-07 14 3.56038e-07V0ZM21.2917 19.6715C21.2917 20.5625 20.5625 21.2917 19.6715 21.2917H8.32854C7.4375 21.2917 6.70833 20.5625 6.70833 19.6715V8.32854C6.70833 7.4375 7.4375 6.70833 8.32854 6.70833H19.6715C20.5625 6.70833 21.2917 7.4375 21.2917 8.32854V19.6715Z" fill="white"/>
</g>
<defs>
<clipPath id="clip0">
<rect width="28" height="28" fill="white"/>
</clipPath>
</defs>
</svg>
