<svg width="28" height="28" viewBox="0 0 28 28" fill="none" xmlns="http://www.w3.org/2000/svg">
<g clip-path="url(#clip0)">
<path d="M21.9904 10.2594C22.661 9.69942 23.4464 9.03162 23.7992 8.28962C23.2252 8.57522 22.5462 8.76142 21.7846 8.86502C22.4818 8.35402 23.053 7.71982 23.347 6.80842C22.6288 7.18922 21.884 7.53642 20.9642 7.71422C18.7942 5.08222 13.5974 7.20742 14.513 11.1232C10.8632 10.8992 8.63859 9.24722 6.78919 7.21862C5.73454 8.93361 6.65197 11.5223 7.89939 12.2307C7.25399 12.1929 6.7668 11.9927 6.29779 11.7799C6.36219 13.9345 7.55079 14.9621 9.21399 15.5207C8.70579 15.6299 8.14439 15.6551 7.6124 15.5613C8.12759 17.0705 9.21679 18.0085 11.062 18.1891C9.81179 19.2587 7.48079 20.0105 5.59919 19.7095C7.2036 20.7301 9.05019 21.5491 11.5954 21.4343C17.7666 21.1557 21.9008 16.7261 21.9904 10.2594ZM14 0C21.7319 0 28 6.26801 28 14C28 21.732 21.7319 28 14 28C6.26801 28 0 21.732 0 14C0 6.26801 6.26801 0 14 0Z" fill="white"/>
</g>
<defs>
<clipPath id="clip0">
<rect width="28" height="28" fill="white"/>
</clipPath>
</defs>
</svg>
