<svg width="24" height="24" viewBox="0 0 24 24" fill="none" xmlns="http://www.w3.org/2000/svg">
<path d="M15.0122 12L23.3924 3.63297C23.7839 3.23556 24.0023 2.69978 24 2.14235C23.9976 1.58491 23.7748 1.05098 23.3799 0.65686C22.9851 0.262738 22.4503 0.0403544 21.892 0.0381505C21.3337 0.0359466 20.7971 0.254101 20.3991 0.645094L12.0189 9.01142L3.6387 0.645094C3.44346 0.443275 3.20993 0.282297 2.95172 0.171553C2.69351 0.0608095 2.4158 0.00251787 2.13479 7.97822e-05C1.85377 -0.00235831 1.57509 0.0511061 1.31499 0.157353C1.05489 0.2636 0.818592 0.420501 0.619878 0.618903C0.421164 0.817304 0.264015 1.05323 0.157601 1.31292C0.0511866 1.57261 -0.00236202 1.85086 7.99079e-05 2.13143C0.00252184 2.412 0.0609053 2.68927 0.171824 2.94708C0.282742 3.20488 0.443973 3.43804 0.646111 3.63297L9.02563 12L0.646111 20.367C0.443973 20.562 0.282742 20.7951 0.171824 21.0529C0.0609053 21.3107 0.00252184 21.588 7.99079e-05 21.8686C-0.00236202 22.1491 0.0511866 22.4274 0.157601 22.6871C0.264015 22.9468 0.421164 23.1827 0.619878 23.3811C0.818592 23.5795 1.05489 23.7364 1.31499 23.8426C1.57509 23.9489 1.85377 24.0024 2.13479 23.9999C2.4158 23.9975 2.69351 23.9392 2.95172 23.8284C3.20993 23.7177 3.44346 23.5567 3.6387 23.3549L12.0189 14.9886L20.3991 23.3556C20.7972 23.7465 21.3338 23.9645 21.8921 23.9622C22.4504 23.9599 22.9852 23.7374 23.3799 23.3431C23.7747 22.9489 23.9974 22.4149 23.9996 21.8575C24.0018 21.3001 23.7833 20.7644 23.3917 20.367L15.0122 12Z" fill="#383838"/>
</svg>
